<svg width="24" height="24" viewBox="0 0 24 24" fill="none" xmlns="http://www.w3.org/2000/svg">
<g clip-path="url(#clip0_1462_843)">
<path d="M21.0002 10H17.6932L13.4462 1.563C13.1881 1.08989 12.8072 0.695071 12.3437 0.420033C11.8802 0.144995 11.3512 -9.97046e-05 10.8122 5.14037e-08H7.13022L10.0302 10H6.40022L4.10022 7.705C3.84005 7.44509 3.52364 7.24845 3.1754 7.13025C2.82717 7.01205 2.45643 6.97545 2.09181 7.02329C1.72719 7.07113 1.37843 7.20212 1.07247 7.40614C0.766514 7.61017 0.511534 7.88178 0.327216 8.2C0.113379 8.56347 -4.59531e-05 8.97722 -0.00145162 9.39892C-0.00285728 9.82062 0.107807 10.2351 0.319216 10.6L3.40722 16H10.0192L7.01922 24H10.8122C11.3419 24.003 11.8627 23.8643 12.3208 23.5983C12.7788 23.3323 13.1574 22.9486 13.4172 22.487L17.4642 16H24.0002V13C24.0002 12.2044 23.6841 11.4413 23.1215 10.8787C22.5589 10.3161 21.7959 10 21.0002 10ZM9.79222 2H10.8122C10.9866 1.9985 11.1582 2.04313 11.3098 2.12935C11.4614 2.21558 11.5874 2.34035 11.6752 2.491L15.4552 10H12.1102L9.79222 2ZM22.0002 14H16.3542L11.6902 21.479C11.6042 21.6367 11.4772 21.7683 11.3227 21.86C11.1682 21.9517 10.9919 22 10.8122 22H9.90022L12.9002 14H4.56722L2.05522 9.6C2.01991 9.53886 2.00141 9.46945 2.00161 9.39885C2.00181 9.32824 2.0207 9.25894 2.05635 9.198C2.092 9.13705 2.14315 9.08663 2.2046 9.05185C2.26605 9.01708 2.33561 8.99919 2.40622 9C2.45917 8.99983 2.51163 9.01017 2.56055 9.03042C2.60947 9.05068 2.65389 9.08045 2.69122 9.118L5.57322 12H21.0002C21.2654 12 21.5198 12.1054 21.7073 12.2929C21.8949 12.4804 22.0002 12.7348 22.0002 13V14Z" fill="#FF7601"/>
</g>
<defs>
<clipPath id="clip0_1462_843">
<rect width="24" height="24" fill="white"/>
</clipPath>
</defs>
</svg>
